<svg width="672" height="566" viewBox="0 0 672 566" fill="none" xmlns="http://www.w3.org/2000/svg">
<path d="M232.851 220.242C232.623 220.013 232.402 219.776 232.184 219.531L138.915 113.84C135.365 109.821 134.133 104.26 135.646 99.1188C137.162 93.9803 141.212 89.9747 146.372 88.5192C147.825 88.1084 182.469 78.5398 225.626 83.1352C283.942 89.3489 329.9 118.408 358.526 167.169C360.902 171.216 361.327 176.117 359.686 180.514C358.046 184.911 354.512 188.335 350.065 189.832L248.86 223.988C243.22 225.89 237.02 224.41 232.851 220.242V220.242Z" fill="#FF5B5B"/>
<path d="M139.577 473.909C137.763 472.095 136.396 469.835 135.649 467.29C134.135 462.149 135.365 456.591 138.913 452.569L232.184 346.881C236.339 342.175 242.911 340.416 248.86 342.423L350.068 376.577C354.515 378.079 358.046 381.5 359.686 385.897C361.332 390.294 360.902 395.196 358.526 399.243C329.903 448.007 283.945 477.065 225.626 483.276C182.472 487.875 147.828 478.3 146.372 477.892C143.762 477.156 141.435 475.767 139.577 473.909V473.909Z" fill="#FF193D"/>
<path d="M564.89 354.484L564.89 211.927C564.89 206.216 561.764 200.961 556.747 198.232C494.916 164.63 433.608 147.596 374.523 147.593C362.198 147.596 349.6 148.357 337.084 149.857C300.703 154.204 263.247 164.903 225.758 181.661C201.868 192.346 177.973 205.491 154.736 220.727C114.149 247.343 89.6911 271.051 88.6684 272.047C85.6635 274.98 83.9654 279.005 83.9654 283.206C83.9654 287.341 85.6111 291.308 88.5333 294.23L88.6684 294.365C89.6911 295.366 114.149 319.074 154.734 345.687C177.97 360.924 201.866 374.068 225.761 384.753C263.247 401.509 300.7 412.21 337.073 416.555C349.597 418.057 362.195 418.818 374.523 418.818C433.611 418.818 494.918 401.784 556.747 368.18C561.767 365.453 564.89 360.196 564.89 354.484V354.484Z" fill="#E1F1FA"/>
<path d="M178.874 336.609L178.874 229.802C178.874 221.918 172.986 215.274 165.157 214.326C159.073 213.59 152.956 213.218 146.979 213.218C72.6627 213.218 13.9386 269.643 11.4768 272.044C8.46643 274.977 6.76827 279.002 6.77103 283.206C6.76827 287.344 8.41129 291.308 11.3334 294.23C11.3803 294.277 11.4272 294.324 11.4768 294.368C13.9386 296.769 72.6654 353.197 146.979 353.194C152.956 353.194 159.073 352.822 165.157 352.086C172.986 351.137 178.874 344.494 178.874 336.609V336.609Z" fill="#FFF261"/>
<path d="M228.816 180.308L163.285 180.31C159.153 180.308 155.186 181.948 152.261 184.873C149.339 187.795 147.698 191.762 147.698 195.897V370.515C147.696 374.647 149.339 378.611 152.264 381.536C155.189 384.461 159.15 386.101 163.285 386.101H228.813L228.816 180.308Z" fill="#1B3B6B"/>
<path d="M378.344 316.835C369.363 307.854 364.414 295.909 364.414 283.206C364.414 256.984 385.746 235.652 411.971 235.649C424.674 235.649 436.619 240.598 445.6 249.579C454.582 258.561 459.53 270.506 459.53 283.209C459.53 295.912 454.585 307.854 445.6 316.838C436.619 325.82 424.677 330.765 411.974 330.765C399.27 330.765 387.326 325.817 378.344 316.835Z" fill="#06CCAB"/>
<path d="M367.56 327.614C355.697 315.752 349.167 299.981 349.167 283.209C349.167 248.578 377.341 220.404 411.971 220.404C428.743 220.404 444.517 226.938 456.376 238.797C468.239 250.66 474.769 266.431 474.772 283.206C474.772 299.983 468.239 315.752 456.376 327.614C444.514 339.476 428.746 346.01 411.968 346.01C395.193 346.007 379.422 339.476 367.56 327.614V327.614ZM434.331 260.843C428.36 254.872 420.415 251.58 411.968 251.58C394.532 251.583 380.345 265.769 380.343 283.206C380.343 291.652 383.634 299.597 389.605 305.569C395.579 311.542 403.521 314.831 411.968 314.831C420.415 314.831 428.357 311.542 434.331 305.569C440.305 299.595 443.593 291.652 443.593 283.206C443.593 274.759 440.305 266.817 434.331 260.843Z" fill="#1B3B6B"/>
<path d="M665.078 283.209C665.078 279.002 663.383 274.941 660.37 272.044C658.716 270.428 619.093 232.118 556.747 198.232L556.747 368.18C619.093 334.294 658.716 295.983 660.37 294.368C663.38 291.435 665.078 287.41 665.078 283.209V283.209Z" fill="#FF5B5B"/>
<path d="M564.89 354.484V283.206H83.9653C83.9653 287.341 85.6084 291.305 88.5305 294.227L88.6683 294.365C89.6883 295.363 114.146 319.071 154.734 345.687C177.97 360.924 201.863 374.065 225.758 384.75C263.247 401.509 300.7 412.21 337.073 416.555C349.594 418.055 362.195 418.818 374.52 418.816C433.608 418.816 494.916 401.782 556.744 368.177C561.767 365.453 564.89 360.196 564.89 354.484V354.484Z" fill="#CDEBFC"/>
<path d="M178.874 336.609L178.874 283.206L6.76826 283.203L6.76551 283.206C6.76827 287.344 8.41128 291.308 11.3334 294.23L11.4713 294.368C13.9358 296.772 72.6627 353.194 146.979 353.194C152.956 353.194 159.073 352.822 165.154 352.083C172.986 351.137 178.877 344.496 178.874 336.609V336.609Z" fill="#FDBF00"/>
<path d="M228.816 283.206L147.696 283.206L147.696 370.517C147.696 374.647 149.336 378.614 152.261 381.539C155.186 384.464 159.15 386.101 163.282 386.104L228.813 386.101L228.816 283.206Z" fill="#001035"/>
<path d="M459.53 283.209C459.527 283.206 459.527 283.206 459.527 283.206H364.414L364.417 283.209C364.414 295.909 369.363 307.854 378.344 316.835C387.326 325.817 399.271 330.765 411.974 330.765C424.677 330.765 436.619 325.82 445.6 316.838C454.579 307.854 459.53 295.912 459.53 283.209V283.209Z" fill="#1CADB5"/>
<path d="M474.772 283.206H443.593C443.593 291.652 440.305 299.595 434.331 305.569C428.357 311.542 420.415 314.831 411.968 314.831C403.521 314.831 395.579 311.542 389.605 305.569C383.631 299.595 380.343 291.652 380.343 283.206C380.343 283.206 380.343 283.206 380.345 283.203H349.167L349.164 283.206C349.167 299.981 355.697 315.752 367.56 327.614C379.422 339.476 395.193 346.007 411.968 346.01C428.743 346.007 444.514 339.476 456.376 327.614C468.239 315.752 474.769 299.981 474.772 283.206Z" fill="#001035"/>
<path d="M665.078 283.203L556.747 283.206V368.18C619.093 334.294 658.716 295.983 660.37 294.368C663.38 291.435 665.078 287.41 665.078 283.203V283.203Z" fill="#FF193D"/>
</svg>
